<?xml version="1.0" encoding="UTF-8" ?>
<svg version="1.1" width="64" height="64" xmlns="http://www.w3.org/2000/svg" shape-rendering="crispEdges">
<rect x="27" y="12" width="4" height="1" fill="#595857" />
<rect x="22" y="13" width="6" height="1" fill="#595857" />
<rect x="28" y="13" width="3" height="1" fill="#5958AC" />
<rect x="31" y="13" width="4" height="1" fill="#595857" />
<rect x="18" y="14" width="4" height="1" fill="#595857" />
<rect x="22" y="14" width="6" height="1" fill="#595886" />
<rect x="28" y="14" width="3" height="36" fill="#306082" />
<rect x="31" y="14" width="3" height="1" fill="#5958AC" />
<rect x="34" y="14" width="3" height="1" fill="#595857" />
<rect x="17" y="15" width="1" height="1" fill="#595857" />
<rect x="18" y="15" width="4" height="1" fill="#595886" />
<rect x="22" y="15" width="6" height="34" fill="#306082" />
<rect x="31" y="15" width="3" height="34" fill="#306082" />
<rect x="34" y="15" width="2" height="1" fill="#5958AC" />
<rect x="36" y="15" width="2" height="1" fill="#595857" />
<rect x="16" y="16" width="1" height="1" fill="#595857" />
<rect x="17" y="16" width="1" height="1" fill="#595886" />
<rect x="18" y="16" width="4" height="32" fill="#306082" />
<rect x="34" y="16" width="2" height="32" fill="#306082" />
<rect x="36" y="16" width="2" height="1" fill="#5958AC" />
<rect x="38" y="16" width="3" height="1" fill="#595857" />
<rect x="62" y="16" width="2" height="2" fill="#595857" />
<rect x="12" y="17" width="4" height="1" fill="#595857" />
<rect x="16" y="17" width="1" height="1" fill="#595886" />
<rect x="17" y="17" width="1" height="30" fill="#306082" />
<rect x="36" y="17" width="2" height="30" fill="#306082" />
<rect x="38" y="17" width="2" height="1" fill="#5958AC" />
<rect x="40" y="17" width="3" height="1" fill="#595857" />
<rect x="61" y="17" width="1" height="2" fill="#595857" />
<rect x="10" y="18" width="2" height="1" fill="#595857" />
<rect x="12" y="18" width="4" height="1" fill="#595886" />
<rect x="16" y="18" width="1" height="28" fill="#306082" />
<rect x="38" y="18" width="2" height="28" fill="#306082" />
<rect x="40" y="18" width="2" height="1" fill="#5958AC" />
<rect x="42" y="18" width="1" height="2" fill="#595857" />
<rect x="60" y="18" width="1" height="2" fill="#595857" />
<rect x="62" y="18" width="1" height="1" fill="#5958B3" />
<rect x="63" y="18" width="1" height="30" fill="#595857" />
<rect x="9" y="19" width="2" height="1" fill="#595857" />
<rect x="11" y="19" width="1" height="1" fill="#595886" />
<rect x="12" y="19" width="4" height="26" fill="#306082" />
<rect x="40" y="19" width="1" height="26" fill="#306082" />
<rect x="41" y="19" width="1" height="1" fill="#5958AC" />
<rect x="43" y="19" width="1" height="2" fill="#595857" />
<rect x="59" y="19" width="1" height="3" fill="#595857" />
<rect x="61" y="19" width="2" height="1" fill="#5974B3" />
<rect x="8" y="20" width="2" height="1" fill="#595857" />
<rect x="10" y="20" width="1" height="1" fill="#595886" />
<rect x="11" y="20" width="1" height="24" fill="#306082" />
<rect x="41" y="20" width="1" height="24" fill="#306082" />
<rect x="42" y="20" width="1" height="1" fill="#5958AC" />
<rect x="60" y="20" width="1" height="1" fill="#5958B3" />
<rect x="61" y="20" width="1" height="24" fill="#306082" />
<rect x="62" y="20" width="1" height="25" fill="#5974B3" />
<rect x="7" y="21" width="1" height="1" fill="#595857" />
<rect x="8" y="21" width="2" height="1" fill="#595886" />
<rect x="10" y="21" width="1" height="22" fill="#306082" />
<rect x="42" y="21" width="1" height="22" fill="#306082" />
<rect x="43" y="21" width="1" height="2" fill="#5958AC" />
<rect x="44" y="21" width="1" height="2" fill="#595857" />
<rect x="58" y="21" width="1" height="2" fill="#595857" />
<rect x="60" y="21" width="1" height="1" fill="#5974B3" />
<rect x="5" y="22" width="2" height="1" fill="#595857" />
<rect x="7" y="22" width="1" height="1" fill="#595886" />
<rect x="8" y="22" width="2" height="20" fill="#306082" />
<rect x="45" y="22" width="1" height="1" fill="#595857" />
<rect x="57" y="22" width="1" height="2" fill="#595857" />
<rect x="59" y="22" width="1" height="1" fill="#5974B3" />
<rect x="60" y="22" width="1" height="20" fill="#306082" />
<rect x="5" y="23" width="1" height="1" fill="#595857" />
<rect x="6" y="23" width="1" height="1" fill="#595886" />
<rect x="7" y="23" width="1" height="18" fill="#306082" />
<rect x="43" y="23" width="1" height="18" fill="#306082" />
<rect x="44" y="23" width="2" height="1" fill="#5958AC" />
<rect x="46" y="23" width="1" height="2" fill="#595857" />
<rect x="56" y="23" width="1" height="2" fill="#595857" />
<rect x="58" y="23" width="1" height="1" fill="#5958B3" />
<rect x="59" y="23" width="1" height="18" fill="#306082" />
<rect x="4" y="24" width="1" height="2" fill="#595857" />
<rect x="5" y="24" width="1" height="2" fill="#595886" />
<rect x="6" y="24" width="1" height="16" fill="#306082" />
<rect x="44" y="24" width="1" height="16" fill="#306082" />
<rect x="45" y="24" width="1" height="1" fill="#5958AC" />
<rect x="47" y="24" width="1" height="4" fill="#595857" />
<rect x="55" y="24" width="1" height="2" fill="#595857" />
<rect x="57" y="24" width="1" height="1" fill="#5974B3" />
<rect x="58" y="24" width="1" height="16" fill="#306082" />
<rect x="3" y="25" width="1" height="2" fill="#595857" />
<rect x="45" y="25" width="1" height="14" fill="#306082" />
<rect x="46" y="25" width="1" height="3" fill="#5958AC" />
<rect x="54" y="25" width="1" height="3" fill="#595857" />
<rect x="56" y="25" width="1" height="1" fill="#5958B3" />
<rect x="57" y="25" width="1" height="14" fill="#306082" />
<rect x="2" y="26" width="1" height="3" fill="#595857" />
<rect x="4" y="26" width="1" height="1" fill="#595886" />
<rect x="5" y="26" width="1" height="12" fill="#306082" />
<rect x="55" y="26" width="1" height="2" fill="#5958B3" />
<rect x="56" y="26" width="1" height="12" fill="#306082" />
<rect x="3" y="27" width="1" height="2" fill="#595886" />
<rect x="4" y="27" width="1" height="10" fill="#306082" />
<rect x="48" y="27" width="1" height="3" fill="#595857" />
<rect x="53" y="27" width="1" height="3" fill="#595857" />
<rect x="1" y="28" width="1" height="2" fill="#595857" />
<rect x="46" y="28" width="1" height="8" fill="#306082" />
<rect x="47" y="28" width="1" height="2" fill="#5958AC" />
<rect x="54" y="28" width="1" height="2" fill="#5958B3" />
<rect x="55" y="28" width="1" height="8" fill="#306082" />
<rect x="2" y="29" width="1" height="1" fill="#595886" />
<rect x="3" y="29" width="1" height="6" fill="#306082" />
<rect x="49" y="29" width="1" height="2" fill="#595857" />
<rect x="52" y="29" width="1" height="2" fill="#595857" />
<rect x="0" y="30" width="1" height="4" fill="#595857" />
<rect x="1" y="30" width="1" height="4" fill="#595886" />
<rect x="2" y="30" width="1" height="4" fill="#306082" />
<rect x="47" y="30" width="1" height="4" fill="#306082" />
<rect x="48" y="30" width="1" height="1" fill="#5958AC" />
<rect x="50" y="30" width="2" height="4" fill="#595857" />
<rect x="53" y="30" width="1" height="1" fill="#5974B3" />
<rect x="54" y="30" width="1" height="4" fill="#306082" />
<rect x="48" y="31" width="1" height="2" fill="#306082" />
<rect x="49" y="31" width="1" height="2" fill="#5958AC" />
<rect x="52" y="31" width="1" height="2" fill="#5958B3" />
<rect x="53" y="31" width="1" height="2" fill="#306082" />
<rect x="48" y="33" width="1" height="1" fill="#5958AC" />
<rect x="49" y="33" width="1" height="2" fill="#595857" />
<rect x="52" y="33" width="1" height="2" fill="#595857" />
<rect x="53" y="33" width="1" height="1" fill="#5974B3" />
<rect x="1" y="34" width="1" height="2" fill="#595857" />
<rect x="2" y="34" width="1" height="1" fill="#595886" />
<rect x="47" y="34" width="1" height="2" fill="#5958AC" />
<rect x="48" y="34" width="1" height="3" fill="#595857" />
<rect x="53" y="34" width="1" height="3" fill="#595857" />
<rect x="54" y="34" width="1" height="2" fill="#5958B3" />
<rect x="2" y="35" width="1" height="3" fill="#595857" />
<rect x="3" y="35" width="1" height="2" fill="#595886" />
<rect x="46" y="36" width="1" height="3" fill="#5958AC" />
<rect x="47" y="36" width="1" height="4" fill="#595857" />
<rect x="54" y="36" width="1" height="3" fill="#595857" />
<rect x="55" y="36" width="1" height="2" fill="#5958B3" />
<rect x="3" y="37" width="1" height="2" fill="#595857" />
<rect x="4" y="37" width="1" height="1" fill="#595886" />
<rect x="4" y="38" width="1" height="2" fill="#595857" />
<rect x="5" y="38" width="1" height="2" fill="#595886" />
<rect x="55" y="38" width="1" height="2" fill="#595857" />
<rect x="56" y="38" width="1" height="1" fill="#5958B3" />
<rect x="45" y="39" width="1" height="2" fill="#5958AC" />
<rect x="46" y="39" width="1" height="2" fill="#595857" />
<rect x="56" y="39" width="1" height="2" fill="#595857" />
<rect x="57" y="39" width="1" height="1" fill="#5974B3" />
<rect x="5" y="40" width="1" height="2" fill="#595857" />
<rect x="6" y="40" width="1" height="1" fill="#595886" />
<rect x="44" y="40" width="1" height="1" fill="#5958AC" />
<rect x="57" y="40" width="1" height="2" fill="#595857" />
<rect x="58" y="40" width="1" height="1" fill="#5958B3" />
<rect x="6" y="41" width="1" height="1" fill="#595857" />
<rect x="7" y="41" width="1" height="1" fill="#595886" />
<rect x="43" y="41" width="1" height="2" fill="#5958AC" />
<rect x="44" y="41" width="2" height="1" fill="#595857" />
<rect x="58" y="41" width="1" height="2" fill="#595857" />
<rect x="59" y="41" width="1" height="1" fill="#5974B3" />
<rect x="7" y="42" width="1" height="1" fill="#595857" />
<rect x="8" y="42" width="2" height="1" fill="#595886" />
<rect x="44" y="42" width="1" height="1" fill="#595857" />
<rect x="59" y="42" width="1" height="3" fill="#595857" />
<rect x="60" y="42" width="1" height="1" fill="#5974B3" />
<rect x="8" y="43" width="2" height="1" fill="#595857" />
<rect x="10" y="43" width="1" height="1" fill="#595886" />
<rect x="42" y="43" width="1" height="1" fill="#5958AC" />
<rect x="43" y="43" width="1" height="2" fill="#595857" />
<rect x="60" y="43" width="1" height="1" fill="#5958B3" />
<rect x="9" y="44" width="2" height="1" fill="#595857" />
<rect x="11" y="44" width="1" height="1" fill="#595886" />
<rect x="41" y="44" width="1" height="2" fill="#5958AC" />
<rect x="42" y="44" width="1" height="3" fill="#595857" />
<rect x="60" y="44" width="1" height="2" fill="#595857" />
<rect x="61" y="44" width="1" height="1" fill="#5974B3" />
<rect x="10" y="45" width="2" height="1" fill="#595857" />
<rect x="12" y="45" width="4" height="1" fill="#595886" />
<rect x="40" y="45" width="1" height="1" fill="#5958AC" />
<rect x="61" y="45" width="1" height="2" fill="#595857" />
<rect x="62" y="45" width="1" height="1" fill="#5958B3" />
<rect x="12" y="46" width="4" height="1" fill="#595857" />
<rect x="16" y="46" width="1" height="1" fill="#595886" />
<rect x="38" y="46" width="2" height="1" fill="#5958AC" />
<rect x="40" y="46" width="2" height="1" fill="#595857" />
<rect x="62" y="46" width="1" height="2" fill="#595857" />
<rect x="16" y="47" width="1" height="1" fill="#595857" />
<rect x="17" y="47" width="1" height="1" fill="#595886" />
<rect x="36" y="47" width="2" height="1" fill="#5958AC" />
<rect x="38" y="47" width="3" height="1" fill="#595857" />
<rect x="17" y="48" width="1" height="1" fill="#595857" />
<rect x="18" y="48" width="4" height="1" fill="#595886" />
<rect x="34" y="48" width="2" height="1" fill="#5958AC" />
<rect x="36" y="48" width="2" height="1" fill="#595857" />
<rect x="18" y="49" width="4" height="1" fill="#595857" />
<rect x="22" y="49" width="6" height="1" fill="#595886" />
<rect x="31" y="49" width="3" height="1" fill="#5958AC" />
<rect x="34" y="49" width="3" height="1" fill="#595857" />
<rect x="22" y="50" width="6" height="1" fill="#595857" />
<rect x="28" y="50" width="3" height="1" fill="#5958AC" />
<rect x="31" y="50" width="4" height="1" fill="#595857" />
<rect x="27" y="51" width="4" height="1" fill="#595857" />
</svg>